<svg xmlns="http://www.w3.org/2000/svg" viewBox="0 0 120 120" fill="none">
  <path fill="url(#gold)" d="M60 8 20 38v44l40 30 40-30V38L60 8Zm0 14 26 19.5v33L60 94 34 74.5v-33L60 22Z"/>
  <path fill="url(#gold)" d="M60 38c-8.8 0-16 7.2-16 16s7.2 16 16 16 16-7.2 16-16-7.2-16-16-16Zm0 8c4.4 0 8 3.6 8 8s-3.6 8-8 8-8-3.6-8-8 3.6-8 8-8Z"/>
  <defs>
    <linearGradient id="gold" x1="20" y1="8" x2="100" y2="112" gradientUnits="userSpaceOnUse">
      <stop stop-color="#a8861e"/>
      <stop offset="0.5" stop-color="#d4af37"/>
      <stop offset="1" stop-color="#f0d875"/>
    </linearGradient>
  </defs>
</svg>
